<?xml version="1.0" encoding="utf-8"?>
<!-- Generator: Adobe Illustrator 16.0.0, SVG Export Plug-In . SVG Version: 6.00 Build 0)  -->
<!DOCTYPE svg PUBLIC "-//W3C//DTD SVG 1.1//EN" "http://www.w3.org/Graphics/SVG/1.1/DTD/svg11.dtd">
<svg version="1.1" id="Layer_1" xmlns="http://www.w3.org/2000/svg" xmlns:xlink="http://www.w3.org/1999/xlink" x="0px" y="0px"
	 width="234px" height="234px" viewBox="0 0 234 234" enable-background="new 0 0 234 234" xml:space="preserve">
<rect fill="#E2E2E2" width="234" height="234"/>
<path fill="#FFFFFF" d="M216.25,233.357c-2-23.357-4-36.857-23.75-45.357c-8.192-3.525-46.235-8.503-47.5-15.333
	c-1.25-6.75-0.083-10.25-2.5-10.167l-0.5-7.75c6-3.5,13.75-14.75,15.75-26c11.5-3.25,17.75-26.75,6.25-34c5-14,7.896-24.705,0.25-39
	C158.5,45,147.25,40.688,143,40.5c-5.75-5.25-16.75-11-31-10.5c-25.254,0.886-33.755,16.236-39,27.25c-5,10.5-11.088,20.544-15,22.5
	c-1.5,0.75,4.25,11.75,10,15.5c-13,5.75-6.75,31,5.75,34c3.25,11.75,5,18,15.75,26.25c0,0,0.41,7.266-0.333,7.17
	c-2.292-0.295-1.042,3.205-2.333,9.33C81.333,177.003,54,183.75,38,188.75c-11.545,3.608-18.5,22-20.25,44.58V234h198.5V233.357z"/>
</svg>
